<svg xmlns="http://www.w3.org/2000/svg" width="87.147" height="53.839" viewBox="0 0 87.147 53.839">
  <g id="Group_8179" data-name="Group 8179" transform="translate(-1351.778 -3619.22)">
    <g id="speedometer" transform="translate(1352.528 3522.357)">
      <g id="Group_8178" data-name="Group 8178" transform="translate(0 97.613)">
        <g id="Group_8177" data-name="Group 8177" transform="translate(0 0)">
          <path id="Path_15000" data-name="Path 15000" d="M55.952,157.291a1.706,1.706,0,0,0-1.544-3.043,37.608,37.608,0,0,0-20,27.114,1.706,1.706,0,1,0,3.364.571A34.182,34.182,0,0,1,55.952,157.291Z" transform="translate(-28.518 -144.432)" fill="#458bdc" stroke="#e8fbff" stroke-width="1.5"/>
          <path id="Path_15001" data-name="Path 15001" d="M208.993,131.483a37.746,37.746,0,0,0-7.264.7,1.706,1.706,0,0,0,.327,3.381,1.726,1.726,0,0,0,.331-.032,34.326,34.326,0,0,1,6.606-.64,1.706,1.706,0,1,0,0-3.412Z" transform="translate(-166.17 -125.704)" fill="#458bdc" stroke="#e8fbff" stroke-width="1.5"/>
          <path id="Path_15002" data-name="Path 15002" d="M73.1,110.156A42.824,42.824,0,0,0,0,140.436a1.706,1.706,0,0,0,1.706,1.706H33.23a9.8,9.8,0,0,0,19.187,0H83.941a1.706,1.706,0,0,0,1.706-1.706A42.542,42.542,0,0,0,73.1,110.156ZM48.89,142.143a6.351,6.351,0,1,1,.318-1.987A6.394,6.394,0,0,1,48.89,142.143Zm3.626-3.412h0a9.715,9.715,0,0,0-.887-2.862l20.157-14.645a1.706,1.706,0,0,0-2.006-2.761L49.62,133.109a9.788,9.788,0,0,0-16.488,5.621H3.449a39.412,39.412,0,0,1,78.75,0H52.515Z" transform="translate(0 -97.613)" fill="#458bdc" stroke="#e8fbff" stroke-width="1.5"/>
          <path id="Path_15003" data-name="Path 15003" d="M242.706,167.613A1.706,1.706,0,0,0,241,169.319v5.971a1.706,1.706,0,1,0,3.412,0v-5.971A1.706,1.706,0,0,0,242.706,167.613Z" transform="translate(-199.883 -155.67)" fill="#458bdc" stroke="#e8fbff" stroke-width="1.5"/>
          <path id="Path_15004" data-name="Path 15004" d="M191.992,177.079a1.706,1.706,0,1,0-3.245,1.055l.941,2.9a1.706,1.706,0,1,0,3.245-1.055Z" transform="translate(-156.475 -162.543)" fill="#458bdc" stroke="#e8fbff" stroke-width="1.5"/>
          <path id="Path_15005" data-name="Path 15005" d="M144.542,200.659a1.706,1.706,0,1,0-2.76,2.006l3.51,4.831a1.706,1.706,0,1,0,2.76-2.006Z" transform="translate(-117.322 -182.495)" fill="#458bdc" stroke="#e8fbff" stroke-width="1.5"/>
          <path id="Path_15006" data-name="Path 15006" d="M109.362,239.685l-2.665-1.936a1.706,1.706,0,1,0-2.006,2.76l2.665,1.936a1.706,1.706,0,1,0,2.006-2.76Z" transform="translate(-86.246 -213.57)" fill="#458bdc" stroke="#e8fbff" stroke-width="1.5"/>
          <path id="Path_15007" data-name="Path 15007" d="M87.844,286.561l-5.679-1.845a1.706,1.706,0,1,0-1.055,3.245l5.679,1.845a1.706,1.706,0,0,0,1.055-3.245Z" transform="translate(-66.294 -252.724)" fill="#458bdc" stroke="#e8fbff" stroke-width="1.5"/>
          <path id="Path_15008" data-name="Path 15008" d="M375.635,284.715l-5.679,1.845a1.706,1.706,0,1,0,1.055,3.245l5.679-1.845a1.706,1.706,0,0,0-1.055-3.245Z" transform="translate(-305.859 -252.724)" fill="#458bdc" stroke="#e8fbff" stroke-width="1.5"/>
          <path id="Path_15009" data-name="Path 15009" d="M326.19,200.283a1.706,1.706,0,0,0-2.383.377l-3.51,4.831a1.706,1.706,0,1,0,2.76,2.006l3.51-4.831A1.706,1.706,0,0,0,326.19,200.283Z" transform="translate(-265.381 -182.496)" fill="#458bdc" stroke="#e8fbff" stroke-width="1.5"/>
          <path id="Path_15010" data-name="Path 15010" d="M291.1,176.651a1.707,1.707,0,0,0-2.15,1.1l-.874,2.691a1.706,1.706,0,1,0,3.245,1.054l.874-2.691A1.706,1.706,0,0,0,291.1,176.651Z" transform="translate(-238.856 -163.097)" fill="#458bdc" stroke="#e8fbff" stroke-width="1.5"/>
        </g>
      </g>
    </g>
    <circle id="Ellipse_64" data-name="Ellipse 64" cx="6.5" cy="6.5" r="6.5" transform="translate(1389 3656)" fill="#fff"/>
  </g>
</svg>
