<svg xmlns="http://www.w3.org/2000/svg" xmlns:xlink="http://www.w3.org/1999/xlink" width="119.394" height="119.397" viewBox="0 0 119.394 119.397">
  <defs>
    <clipPath id="clip-path">
      <rect id="Rectangle_2917" data-name="Rectangle 2917" width="119.394" height="119.397" fill="#458bdc"/>
    </clipPath>
  </defs>
  <g id="Group_7876" data-name="Group 7876" transform="translate(0 0)">
    <g id="Group_7875" data-name="Group 7875" transform="translate(0 0)" clip-path="url(#clip-path)">
      <path id="Path_14812" data-name="Path 14812" d="M30.823,47.053A16.308,16.308,0,1,1,47.016,30.745,16.268,16.268,0,0,1,30.823,47.053Zm0-28.763A12.457,12.457,0,1,0,43.167,30.745,12.414,12.414,0,0,0,30.823,18.289Z" transform="translate(29.298 28.914)" fill="#458bdc"/>
      <path id="Path_14813" data-name="Path 14813" d="M51.889,87.853H42.175a1.925,1.925,0,0,1-1.925-1.928v-7a32.357,32.357,0,0,1-10.789-4.507l-4.9,4.939a1.954,1.954,0,0,1-2.735,0l-6.867-6.918a1.928,1.928,0,0,1,0-2.714l4.918-4.951a32.779,32.779,0,0,1-4.486-10.891H8.464a1.925,1.925,0,0,1-1.928-1.925V42.175a1.925,1.925,0,0,1,1.928-1.925h6.927A32.779,32.779,0,0,1,19.877,29.36l-4.918-4.951a1.928,1.928,0,0,1,0-2.714l6.867-6.918a1.983,1.983,0,0,1,2.735,0l4.9,4.939a32.3,32.3,0,0,1,10.789-4.507v-7a1.927,1.927,0,0,1,1.925-1.928h9.714a1.925,1.925,0,0,1,1.925,1.928v7A32.3,32.3,0,0,1,64.6,19.715l4.9-4.939a1.983,1.983,0,0,1,2.735,0l6.867,6.918a1.928,1.928,0,0,1,0,2.714L74.187,29.36a32.778,32.778,0,0,1,4.486,10.891H85.6a1.927,1.927,0,0,1,1.928,1.925v9.783A1.93,1.93,0,0,1,85.6,53.886H78.673a32.763,32.763,0,0,1-4.486,10.888l4.918,4.954a1.925,1.925,0,0,1,0,2.711l-6.867,6.918a1.983,1.983,0,0,1-2.735,0l-4.9-4.936a32.289,32.289,0,0,1-10.789,4.5v7a1.927,1.927,0,0,1-1.925,1.928M44.1,84h5.858V77.331a1.928,1.928,0,0,1,1.618-1.9A28.378,28.378,0,0,0,63.7,70.368a1.931,1.931,0,0,1,2.5.2l4.666,4.7,4.153-4.183-4.687-4.723a1.924,1.924,0,0,1-.2-2.48,28.888,28.888,0,0,0,5.033-12.224,1.924,1.924,0,0,1,1.9-1.624h6.6V44.1h-6.6a1.924,1.924,0,0,1-1.9-1.621,28.834,28.834,0,0,0-5.033-12.224,1.927,1.927,0,0,1,.2-2.48l4.687-4.723-4.153-4.186L66.2,23.571a1.924,1.924,0,0,1-2.5.2A28.34,28.34,0,0,0,51.58,18.706a1.931,1.931,0,0,1-1.618-1.9V10.136H44.1v6.669a1.926,1.926,0,0,1-1.618,1.9,28.378,28.378,0,0,0-12.122,5.063,1.924,1.924,0,0,1-2.5-.2L23.2,18.865l-4.153,4.186,4.687,4.723a1.924,1.924,0,0,1,.2,2.48A28.829,28.829,0,0,0,18.9,42.479a1.926,1.926,0,0,1-1.9,1.621h-6.6v5.933h6.6a1.932,1.932,0,0,1,1.9,1.624,28.829,28.829,0,0,0,5.03,12.224,1.924,1.924,0,0,1-.2,2.48l-4.687,4.723L23.2,75.268l4.666-4.7a1.928,1.928,0,0,1,2.5-.2,28.34,28.34,0,0,0,12.122,5.063,1.928,1.928,0,0,1,1.618,1.9Z" transform="translate(13.09 12.586)" fill="#458bdc"/>
      <path id="Path_14814" data-name="Path 14814" d="M103.2,20.455c-.021-2.471-3.874-2.456-3.852.03l.021,2.6C87.8,9.092,69.279,0,51.509,0A58.6,58.6,0,0,0,4.847,22.95,1.927,1.927,0,0,0,7.895,25.3,54.779,54.779,0,0,1,51.509,3.849c17.3,0,35.357,9.2,46.092,23.2h-5.33a1.926,1.926,0,0,0,0,3.849h9.068a1.95,1.95,0,0,0,1.928-1.94Z" transform="translate(8.882 0.001)" fill="#458bdc"/>
      <path id="Path_14815" data-name="Path 14815" d="M70.592,34.658a59.07,59.07,0,0,0-3.913-21.223c-.883-2.315-4.486-.943-3.594,1.378a55.275,55.275,0,0,1,3.651,19.845c0,21.5-14.734,42.149-35.72,51.022L32.5,83.368a1.925,1.925,0,0,0-3.237-2.081l-4.594,7.146a1.945,1.945,0,0,0,.832,2.8L33.238,94.7a1.927,1.927,0,0,0,1.579-3.513l-3.372-1.51C54.389,80.467,70.592,58.043,70.592,34.658Z" transform="translate(48.805 24.515)" fill="#458bdc"/>
      <path id="Path_14816" data-name="Path 14816" d="M62.673,91.529c-.757.03-1.519.045-2.282.045A55.3,55.3,0,0,1,5.237,36.255c0-5.4,2.231-12.146,4.357-17.845l1.694,3.81a1.927,1.927,0,0,0,3.519-1.564l-3.591-8.077a1.949,1.949,0,0,0-2.633-.934L1.022,15.494a1.927,1.927,0,0,0,1.748,3.432L5.88,17.344c-2.2,5.93-4.5,12.975-4.5,18.911a59.155,59.155,0,0,0,59,59.172q1.23,0,2.441-.048a1.927,1.927,0,0,0-.156-3.849C61.917,91.562,63.751,91.487,62.673,91.529Z" transform="translate(-0.001 22.914)" fill="#458bdc"/>
    </g>
  </g>
</svg>
