<svg id="enzyme" xmlns="http://www.w3.org/2000/svg" width="124.113" height="110.699" viewBox="0 0 124.113 110.699">
  <path id="Path_11475" data-name="Path 11475" d="M328.224,347.282a1.939,1.939,0,0,0,1.939-1.939V333.293a1.939,1.939,0,0,0-.97-1.68l-10.435-6.026a1.939,1.939,0,0,0-1.939,3.359l9.466,5.466v10.931A1.939,1.939,0,0,0,328.224,347.282Z" transform="translate(-239.285 -253.172)" fill="#458bdc"/>
  <path id="Path_11476" data-name="Path 11476" d="M182.715,68.9,198,77.726v11.6a1.939,1.939,0,0,0,3.879,0v-11.6L217.162,68.9a1.939,1.939,0,1,0-1.939-3.359l-15.284,8.824-15.285-8.824a1.939,1.939,0,1,0-1.939,3.359Z" transform="translate(-137.688 -56.165)" fill="#458bdc"/>
  <path id="Path_11477" data-name="Path 11477" d="M259.235,229.205a1.939,1.939,0,0,0,3.879,0V217.155a1.939,1.939,0,0,0-.97-1.679l-10.436-6.025a1.939,1.939,0,1,0-1.939,3.359l9.467,5.466Z" transform="translate(-188.488 -165.188)" fill="#458bdc"/>
  <path id="Path_11478" data-name="Path 11478" d="M146.135,209.89l-15.285,8.824-14.314-8.263V192.8a1.939,1.939,0,0,0-.97-1.679l-16.254-9.384a1.939,1.939,0,0,0-1.939,0L81.12,191.122a1.939,1.939,0,0,0-.97,1.679v17.65l-14.315,8.265-15.284-8.824a1.939,1.939,0,1,0-1.939,3.359L63.9,222.075v17.649a1.939,1.939,0,1,0,3.879,0V222.075L82.09,213.81,96.4,222.075v2.9a1.939,1.939,0,1,0,3.879,0v-2.9L114.6,213.81l14.314,8.265V238.6L114.6,246.868,100.283,238.6v-7.632a1.939,1.939,0,0,0-3.879,0v8.751a1.939,1.939,0,0,0,.97,1.679l16.254,9.386a1.939,1.939,0,0,0,1.939,0L131.82,241.4a1.939,1.939,0,0,0,.97-1.679v-17.65l15.284-8.824a1.939,1.939,0,1,0-1.939-3.359ZM84.029,193.921l14.315-8.264,14.315,8.264v16.53l-14.315,8.264-14.315-8.264Z" transform="translate(-36.093 -144.194)" fill="#458bdc"/>
  <path id="Path_11479" data-name="Path 11479" d="M340.791,39.237a5.785,5.785,0,1,0-5.785-5.784A5.785,5.785,0,0,0,340.791,39.237Zm0-7.69a1.906,1.906,0,1,1-1.906,1.906A1.906,1.906,0,0,1,340.791,31.547Z" transform="translate(-253.798 -27.668)" fill="#458bdc"/>
  <path id="Path_11480" data-name="Path 11480" d="M140.459,39.237a5.785,5.785,0,1,0-5.785-5.784A5.785,5.785,0,0,0,140.459,39.237Zm0-7.69a1.906,1.906,0,1,1-1.906,1.906A1.906,1.906,0,0,1,140.459,31.547Z" transform="translate(-102.028 -27.668)" fill="#458bdc"/>
  <path id="Path_11481" data-name="Path 11481" d="M5.784,263.12a5.785,5.785,0,1,0,5.785,5.785,5.785,5.785,0,0,0-5.785-5.785Zm0,7.69A1.906,1.906,0,1,1,7.69,268.9a1.906,1.906,0,0,1-1.906,1.906Z" transform="translate(0.001 -206.045)" fill="#458bdc"/>
  <path id="Path_11482" data-name="Path 11482" d="M470.059,263.12a5.785,5.785,0,1,0,5.784,5.784A5.785,5.785,0,0,0,470.059,263.12Zm0,7.69a1.906,1.906,0,1,1,1.906-1.906A1.906,1.906,0,0,1,470.059,270.81Z" transform="translate(-351.73 -206.045)" fill="#458bdc"/>
  <path id="Path_11483" data-name="Path 11483" d="M101.894,436.606a5.785,5.785,0,1,0,5.784,5.784,5.785,5.785,0,0,0-5.784-5.784Zm0,7.69a1.906,1.906,0,1,1,1.906-1.906A1.906,1.906,0,0,1,101.894,444.3Z" transform="translate(-72.811 -337.477)" fill="#458bdc"/>
</svg>
