<svg xmlns="http://www.w3.org/2000/svg" width="126.884" height="114.63" viewBox="0 0 126.884 114.63">
  <g id="custom" transform="translate(0 -3)">
    <g id="Group_8176" data-name="Group 8176" transform="translate(0 3)">
      <g id="Group_8164" data-name="Group 8164" transform="translate(0 16.602)">
        <path id="Path_14981" data-name="Path 14981" d="M56.327,36.3H1.976A1.981,1.981,0,0,1,0,34.326V21.677A10.333,10.333,0,0,1,10.277,11.4h52.77a1.981,1.981,0,0,1,1.976,1.976,2.125,2.125,0,0,1-1.976,1.976H10.08A6.158,6.158,0,0,0,3.953,21.48V32.152H56.327A1.981,1.981,0,0,1,58.3,34.128,2.155,2.155,0,0,1,56.327,36.3Z" transform="translate(0 -11.4)" fill="#458bdc"/>
      </g>
      <g id="Group_8165" data-name="Group 8165" transform="translate(0 37.354)">
        <path id="Path_14982" data-name="Path 14982" d="M10.08,99.177a9.4,9.4,0,0,1-7.115-2.965A10.149,10.149,0,0,1,0,88.9V23.876A1.981,1.981,0,0,1,1.976,21.9H56.327A1.981,1.981,0,0,1,58.3,23.876a2.125,2.125,0,0,1-1.976,1.976H3.953V88.7a6.074,6.074,0,0,0,6.127,6.127h92.693A6.158,6.158,0,0,0,108.9,88.7V49.174a1.981,1.981,0,0,1,1.976-1.976,2.125,2.125,0,0,1,1.976,1.976V88.7a10.333,10.333,0,0,1-10.277,10.277H10.08Z" transform="translate(0 -21.9)" fill="#458bdc"/>
      </g>
      <g id="Group_8166" data-name="Group 8166" transform="translate(11.463 27.077)">
        <path id="Path_14983" data-name="Path 14983" d="M12.124,20.653H7.776A1.981,1.981,0,0,1,5.8,18.676,2.125,2.125,0,0,1,7.776,16.7h4.348a1.976,1.976,0,1,1,0,3.953Z" transform="translate(-5.8 -16.7)" fill="#458bdc"/>
      </g>
      <g id="Group_8167" data-name="Group 8167" transform="translate(21.147 27.077)">
        <path id="Path_14984" data-name="Path 14984" d="M17.024,20.653H12.676A1.981,1.981,0,0,1,10.7,18.676,2.125,2.125,0,0,1,12.676,16.7h4.348a1.976,1.976,0,1,1,0,3.953Z" transform="translate(-10.7 -16.7)" fill="#458bdc"/>
      </g>
      <g id="Group_8168" data-name="Group 8168" transform="translate(30.832 27.077)">
        <path id="Path_14985" data-name="Path 14985" d="M21.924,20.653H17.576A1.981,1.981,0,0,1,15.6,18.676,2.125,2.125,0,0,1,17.576,16.7h4.348a1.976,1.976,0,1,1,0,3.953Z" transform="translate(-15.6 -16.7)" fill="#458bdc"/>
      </g>
      <g id="Group_8169" data-name="Group 8169" transform="translate(13.637 47.829)">
        <path id="Path_14986" data-name="Path 14986" d="M41.882,56.648H13.027A6.158,6.158,0,0,1,6.9,50.521V33.327A6.158,6.158,0,0,1,13.027,27.2H41.882a6.158,6.158,0,0,1,6.127,6.127V50.521A6.158,6.158,0,0,1,41.882,56.648Zm0-25.5H13.027a1.981,1.981,0,0,0-1.976,1.976V50.521A1.981,1.981,0,0,0,13.027,52.5H41.882a1.981,1.981,0,0,0,1.976-1.976V33.327A2.165,2.165,0,0,0,41.882,31.153Z" transform="translate(-6.9 -27.2)" fill="#458bdc"/>
      </g>
      <g id="Group_8170" data-name="Group 8170" transform="translate(65.221 61.07)">
        <path id="Path_14987" data-name="Path 14987" d="M37.15,37.853H34.976A1.981,1.981,0,0,1,33,35.876,2.125,2.125,0,0,1,34.976,33.9H37.15a1.981,1.981,0,0,1,1.976,1.976A2.125,2.125,0,0,1,37.15,37.853Z" transform="translate(-33 -33.9)" fill="#458bdc"/>
      </g>
      <g id="Group_8171" data-name="Group 8171" transform="translate(65.221 74.115)">
        <path id="Path_14988" data-name="Path 14988" d="M66.2,44.453H34.976A1.981,1.981,0,0,1,33,42.476,2.125,2.125,0,0,1,34.976,40.5H66.2a1.981,1.981,0,0,1,1.976,1.976A2.125,2.125,0,0,1,66.2,44.453Z" transform="translate(-33 -40.5)" fill="#458bdc"/>
      </g>
      <g id="Group_8172" data-name="Group 8172" transform="translate(12.649 87.159)">
        <path id="Path_14989" data-name="Path 14989" d="M92.175,51.053H8.376A1.981,1.981,0,0,1,6.4,49.076,2.125,2.125,0,0,1,8.376,47.1h83.8a1.981,1.981,0,0,1,1.976,1.976A2.125,2.125,0,0,1,92.175,51.053Z" transform="translate(-6.4 -47.1)" fill="#458bdc"/>
      </g>
      <g id="Group_8173" data-name="Group 8173" transform="translate(12.649 100.203)">
        <path id="Path_14990" data-name="Path 14990" d="M92.175,57.653H8.376A1.981,1.981,0,0,1,6.4,55.676,2.125,2.125,0,0,1,8.376,53.7h83.8a1.981,1.981,0,0,1,1.976,1.976A2.125,2.125,0,0,1,92.175,57.653Z" transform="translate(-6.4 -53.7)" fill="#458bdc"/>
      </g>
      <g id="Group_8174" data-name="Group 8174" transform="translate(61.268)">
        <path id="Path_14991" data-name="Path 14991" d="M65.389,68.814H62.227a5.3,5.3,0,0,1-5.139-4.348L56.3,59.525c0-.4-.4-.593-.593-.791-.791-.2-1.383-.593-2.174-.791a.9.9,0,0,0-.988,0L48.59,60.908a5.383,5.383,0,0,1-6.72-.593L39.5,57.944a5.359,5.359,0,0,1-.593-6.72l2.965-3.953a.882.882,0,0,0,0-.988,23.184,23.184,0,0,1-.988-2.174c-.2-.4-.4-.593-.791-.593l-4.743-.791A5.119,5.119,0,0,1,31,37.587v-3.36a5.119,5.119,0,0,1,4.348-5.139l4.743-.791c.4,0,.593-.4.791-.593a10.592,10.592,0,0,1,.988-2.174.882.882,0,0,0,0-.988L38.906,20.59a5.375,5.375,0,0,1,.4-6.72L41.673,11.5a5.119,5.119,0,0,1,6.72-.4l3.755,2.965a.652.652,0,0,0,.988,0c.791-.4,1.383-.593,2.174-.988a1.543,1.543,0,0,0,.791-.791l.791-4.941A5.7,5.7,0,0,1,62.227,3h3.162a5.3,5.3,0,0,1,5.139,4.348l.791,4.941c0,.4.4.593.593.791.791.2,1.383.593,2.174.791a.9.9,0,0,0,.988,0l3.953-2.965a5.139,5.139,0,0,1,6.72.593l2.372,2.372a5.359,5.359,0,0,1,.593,6.72l-2.965,3.953a.882.882,0,0,0,0,.988,23.182,23.182,0,0,1,.988,2.174c.2.4.4.593.791.593l4.743.791a5.119,5.119,0,0,1,4.348,5.139v3.36a5.119,5.119,0,0,1-4.348,5.139l-4.743.791c-.4,0-.593.4-.791.593-.2.791-.593,1.383-.791,2.174a1.26,1.26,0,0,0,0,1.186l2.965,3.953a5.657,5.657,0,0,1-.4,6.72l-2.965,2.174a5.119,5.119,0,0,1-6.72.4l-3.755-2.965a.652.652,0,0,0-.988,0c-.791.4-1.383.593-2.174.988-.4.2-.593.4-.593.791l-.791,4.941a5.3,5.3,0,0,1-5.139,4.348ZM52.938,53.6a3.984,3.984,0,0,1,2.174.593c.593.2,1.186.593,1.779.791a5.265,5.265,0,0,1,3.36,3.953l.791,4.941a1.059,1.059,0,0,0,.988.988h3.162a.9.9,0,0,0,.988-.791l.791-4.941a4.916,4.916,0,0,1,3.36-3.953,7.021,7.021,0,0,0,1.779-.791,5.256,5.256,0,0,1,5.336.593L81.4,57.944a.954.954,0,0,0,1.383-.2l2.372-2.372a.955.955,0,0,0,0-1.383l-2.965-3.953A4.907,4.907,0,0,1,81.6,44.9c.2-.593.593-1.186.791-1.779a4.916,4.916,0,0,1,3.953-3.36l4.743-.791c.593,0,.791-.593.791-.988v-3.36a.9.9,0,0,0-.791-.988l-4.743-.791a4.916,4.916,0,0,1-3.953-3.36A7.02,7.02,0,0,0,81.6,27.7a5.671,5.671,0,0,1,.4-5.336l2.965-3.953c.4-.4.2-.988,0-1.383l-2.372-2.372a1.5,1.5,0,0,0-.791-.4.726.726,0,0,0-.593.2l-3.755,2.965a5.16,5.16,0,0,1-5.336.593c-.593-.2-1.186-.593-1.779-.791a5.265,5.265,0,0,1-3.36-3.953L66.18,8.336a1.059,1.059,0,0,0-.988-.988H62.029a.9.9,0,0,0-.988.791l-.593,4.743a4.916,4.916,0,0,1-3.36,3.953,7.02,7.02,0,0,0-1.779.791,5.256,5.256,0,0,1-5.336-.593l-3.953-2.965c-.593-.593-.988-.2-1.383.2l-2.372,2.372a.955.955,0,0,0,0,1.383l2.965,3.953a5.323,5.323,0,0,1,.4,5.139c-.2.593-.593,1.186-.791,1.779a4.916,4.916,0,0,1-3.953,3.36l-4.743.791c-.593,0-.791.593-.791.988v3.36a.9.9,0,0,0,.791.988l4.743.791a4.916,4.916,0,0,1,3.953,3.36,7.02,7.02,0,0,0,.791,1.779,5.21,5.21,0,0,1-.593,5.336L42.068,53.6c-.4.4-.2.988,0,1.383l2.372,2.372a.954.954,0,0,0,1.383.2l3.953-2.965a6.561,6.561,0,0,1,3.162-.988Z" transform="translate(-31 -3)" fill="#458bdc"/>
      </g>
      <g id="Group_8175" data-name="Group 8175" transform="translate(80.834 19.566)">
        <path id="Path_14992" data-name="Path 14992" d="M54.142,39.384A13.242,13.242,0,1,1,67.384,26.142,13.243,13.243,0,0,1,54.142,39.384Zm0-22.333a9.091,9.091,0,1,0,0,18.183,9.091,9.091,0,0,0,0-18.183Z" transform="translate(-40.9 -12.9)" fill="#458bdc"/>
      </g>
    </g>
  </g>
</svg>
