<svg xmlns="http://www.w3.org/2000/svg" width="123.065" height="123.058" viewBox="0 0 123.065 123.058">
  <path id="dna_2_" data-name="dna (2)" d="M113.187,32.152a18.491,18.491,0,0,1-3.7,2.9L88.512,14.072a18.51,18.51,0,0,1,2.9-3.7,5.786,5.786,0,0,0-8.183-8.182c-9.389,9.389-9.526,20.739-7.883,30.986C63.415,30.72,50.228,29.674,39.7,40.2a28.468,28.468,0,0,0-8.364,17.089,1.8,1.8,0,1,0,3.58.462,24.984,24.984,0,0,1,7.337-15c9.7-9.7,21.952-8.3,33.785-5.737.353,1.768.666,3.155,1.01,4.679C65.292,39.02,53.905,37.13,45.318,45.842c-19.2,19.222,13.422,52.015-8.035,73.472a2.175,2.175,0,1,1-3.076-3.076c13.606-13.607,1.449-33.153.5-51.866a1.806,1.806,0,0,0-3.606.184,75.59,75.59,0,0,0,1.583,11.287c-10.247-1.642-21.6-1.505-30.985,7.883a5.786,5.786,0,0,0,8.183,8.182,18.508,18.508,0,0,1,3.7-2.9l20.978,20.977a18.525,18.525,0,0,1-2.9,3.7,5.785,5.785,0,0,0,8.182,8.182c9.389-9.389,9.526-20.739,7.883-30.986C61.335,93.687,73.5,93.719,83.362,83.86c10.527-10.527,9.479-23.716,7.02-35.645a54.753,54.753,0,0,0,10.329.765,1.805,1.805,0,0,0-.114-3.609,53.567,53.567,0,0,1-11.044-.956c-.347-1.524-.685-2.959-1.066-4.61,10.013,2.016,19.544,2.608,27.253-5.1a2.175,2.175,0,0,1,3.076,3.076,24.682,24.682,0,0,1-11.661,6.7,1.805,1.805,0,0,0,.887,3.5,28.2,28.2,0,0,0,13.327-7.651,5.785,5.785,0,1,0-8.182-8.182ZM7.324,89.354a2.175,2.175,0,0,1-3.077-3.076c5.847-5.847,12.7-7.605,19.517-7.605a56.188,56.188,0,0,1,9.747.971c.345,1.515.7,3.005,1.066,4.611-10.013-2.017-19.544-2.609-27.253,5.1Zm9.8-1.9c4.9-1.505,10.757-.93,18.319.672,1.6,7.562,2.178,13.421.672,18.319Zm27.99-9c-1.376-5.944-2.594-11.488-2.541-16.5L61.612,80.992c-5.016.054-10.559-1.163-16.5-2.54Zm21.133,2.066-23.2-23.2a17.235,17.235,0,0,1,3.624-7.6L73.843,76.894a17.212,17.212,0,0,1-7.6,3.624ZM76.4,74.342,49.22,47.165a17.227,17.227,0,0,1,7.6-3.624l23.2,23.2a17.233,17.233,0,0,1-3.623,7.6Zm1.558-28.735c1.376,5.944,2.593,11.488,2.541,16.5L61.452,43.067c5.015-.054,10.559,1.163,16.5,2.54Zm2.854,35.7c-9.7,9.7-21.951,8.3-33.785,5.737-.254-1.269-.531-2.577-1.01-4.679,11.908,2.709,23.06,4.524,31.719-4.135C96.8,59.163,64.446,26.079,85.781,4.745a2.175,2.175,0,1,1,3.076,3.076C69.681,27,102.259,59.857,80.808,81.306Zm6.816-45.37c-1.6-7.562-2.178-13.421-.672-18.319l18.991,18.991c-4.9,1.506-10.757.93-18.319-.672Zm0,0" transform="translate(0.001 -0.501)" fill="#458bdc"/>
</svg>
