<svg id="Group_917" data-name="Group 917" xmlns="http://www.w3.org/2000/svg" width="57.428" height="59.024" viewBox="0 0 57.428 59.024">
  <path id="Path_6652" data-name="Path 6652" d="M5.1,10.221H6.966V35.832a4.39,4.39,0,0,0,4.385,4.385H52.18a4.39,4.39,0,0,0,4.385-4.385V10.221h1.863A1.784,1.784,0,0,0,60.209,8.44V4.282A1.784,1.784,0,0,0,58.428,2.5H5.1A1.784,1.784,0,0,0,3.322,4.282V8.44A1.784,1.784,0,0,0,5.1,10.221ZM55.361,35.832a3.183,3.183,0,0,1-3.18,3.18H11.352a3.183,3.183,0,0,1-3.18-3.18V10.221h47.19ZM4.527,4.282A.578.578,0,0,1,5.1,3.7H58.429a.578.578,0,0,1,.577.577V8.44a.578.578,0,0,1-.577.577H5.1a.578.578,0,0,1-.577-.577Z" transform="translate(-3.129 -2.5)" fill="#458bdc"/>
  <path id="Path_6653" data-name="Path 6653" d="M12.14,28.686h4.239a1.265,1.265,0,0,0,1.264-1.264V23.455a1.265,1.265,0,0,0-1.264-1.264H12.14a1.266,1.266,0,0,0-1.264,1.264v3.968A1.265,1.265,0,0,0,12.14,28.686Zm0-5.29h4.239a.059.059,0,0,1,.059.059l-.059,4.027-4.3-.059Z" transform="translate(-1.584 1.528)" fill="#458bdc"/>
  <path id="Path_6654" data-name="Path 6654" d="M20.974,29.585h4.239a1.265,1.265,0,0,0,1.264-1.264V19.061A1.266,1.266,0,0,0,25.212,17.8H20.974a1.266,1.266,0,0,0-1.264,1.264v9.261a1.266,1.266,0,0,0,1.264,1.264Zm0-10.582h4.239a.059.059,0,0,1,.059.059l-.059,9.318-4.3-.059Z" transform="translate(0.223 0.629)" fill="#458bdc"/>
  <path id="Path_6655" data-name="Path 6655" d="M29.809,30.9h4.239a1.265,1.265,0,0,0,1.264-1.264V12.653a1.265,1.265,0,0,0-1.264-1.264H29.809a1.266,1.266,0,0,0-1.264,1.264V29.632A1.265,1.265,0,0,0,29.809,30.9Zm0-18.3h4.239a.059.059,0,0,1,.059.059l-.059,17.038-4.3-.059Z" transform="translate(2.03 -0.682)" fill="#458bdc"/>
  <path id="Path_6656" data-name="Path 6656" d="M38.643,30.024h4.239a1.266,1.266,0,0,0,1.264-1.264V16.913a1.265,1.265,0,0,0-1.264-1.264H38.643a1.266,1.266,0,0,0-1.264,1.264V28.761A1.265,1.265,0,0,0,38.643,30.024Zm0-13.171h4.239a.059.059,0,0,1,.059.059L42.881,28.82l-4.3-.059Z" transform="translate(3.837 0.19)" fill="#458bdc"/>
  <path id="Path_6657" data-name="Path 6657" d="M14.867,45.2a5.118,5.118,0,1,0-5.417,0,9.448,9.448,0,0,0-6.109,5.7,2.83,2.83,0,0,0,2.651,3.81H18.325a2.828,2.828,0,0,0,2.649-3.809A9.442,9.442,0,0,0,14.867,45.2ZM8.245,40.88a3.913,3.913,0,1,1,3.914,3.914A3.918,3.918,0,0,1,8.245,40.88Zm10.08,12.635H5.991A1.622,1.622,0,0,1,4.47,51.331a8.207,8.207,0,0,1,15.375,0,1.621,1.621,0,0,1-1.52,2.184Z" transform="translate(-3.162 4.304)" fill="#458bdc"/>
  <path id="Path_6658" data-name="Path 6658" d="M31.237,45.2a5.118,5.118,0,1,0-5.417,0,9.451,9.451,0,0,0-6.109,5.7,2.829,2.829,0,0,0,2.649,3.81H34.7a2.828,2.828,0,0,0,2.649-3.809A9.444,9.444,0,0,0,31.237,45.2ZM24.615,40.88a3.913,3.913,0,1,1,3.912,3.912A3.918,3.918,0,0,1,24.615,40.88ZM34.7,53.515H22.36a1.621,1.621,0,0,1-1.521-2.184,8.208,8.208,0,0,1,15.376,0A1.621,1.621,0,0,1,34.7,53.515Z" transform="translate(0.186 4.304)" fill="#458bdc"/>
  <path id="Path_6659" data-name="Path 6659" d="M53.714,50.91A9.44,9.44,0,0,0,47.607,45.2a5.118,5.118,0,1,0-5.417,0,9.446,9.446,0,0,0-6.108,5.7,2.828,2.828,0,0,0,2.649,3.81H51.064a2.83,2.83,0,0,0,2.65-3.81ZM40.985,40.88A3.913,3.913,0,1,1,44.9,44.794,3.917,3.917,0,0,1,40.985,40.88ZM51.064,53.514H38.732a1.622,1.622,0,0,1-1.521-2.184,8.207,8.207,0,0,1,15.375,0A1.621,1.621,0,0,1,51.064,53.514Z" transform="translate(3.535 4.304)" fill="#458bdc"/>
</svg>
