<svg xmlns="http://www.w3.org/2000/svg" xmlns:xlink="http://www.w3.org/1999/xlink" width="113.892" height="113.892" viewBox="0 0 113.892 113.892">
  <defs>
    <clipPath id="clip-path">
      <path id="path303" d="M0-682.665H113.892v113.892H0Z" transform="translate(0 682.665)"/>
    </clipPath>
  </defs>
  <g id="g297" transform="translate(0 682.665)">
    <g id="g299" transform="translate(0 -682.665)">
      <g id="g301" clip-path="url(#clip-path)">
        <g id="g307" transform="translate(4.192 6.673)">
          <path id="path309" d="M0-278.225a25.462,25.462,0,0,0,15.981,14.467,25.51,25.51,0,0,0-.488,4.973,25.393,25.393,0,0,0,25.393,25.393A25.394,25.394,0,0,0,63.8-247.825a21.7,21.7,0,0,0,14.22,5.282A21.782,21.782,0,0,0,99.8-264.324a21.7,21.7,0,0,0-5.576-14.552,18.37,18.37,0,0,0,13.254-17.639A18.365,18.365,0,0,0,90.8-314.8a23.432,23.432,0,0,0-23.032-19.137A23.413,23.413,0,0,0,47.55-322.352a18.307,18.307,0,0,0-13.1-5.5,18.368,18.368,0,0,0-18.127,15.42A25.46,25.46,0,0,0,0-297.858" transform="translate(0 333.938)" fill="none" stroke="#458bdc" stroke-linecap="round" stroke-linejoin="round" stroke-width="3"/>
        </g>
        <g id="g311" transform="translate(71.401 65.844)">
          <path id="path313" d="M-79.984-39.992A8.008,8.008,0,0,0-87.992-48,8.008,8.008,0,0,0-96-39.992a8.008,8.008,0,0,0,8.008,8.008A8.008,8.008,0,0,0-79.984-39.992Z" transform="translate(96 48)" fill="none" stroke="#458bdc" stroke-linecap="round" stroke-linejoin="round" stroke-width="3"/>
        </g>
        <g id="g315" transform="translate(79.409 61.395)">
          <path id="path317" d="M0,0V4.171" fill="none" stroke="#458bdc" stroke-linecap="round" stroke-linejoin="round" stroke-width="3"/>
        </g>
        <g id="g319" transform="translate(79.409 82.333)">
          <path id="path321" d="M0-19.857v-3.976" transform="translate(0 23.833)" fill="none" stroke="#458bdc" stroke-linecap="round" stroke-linejoin="round" stroke-width="3"/>
        </g>
        <g id="g323" transform="translate(87.769 73.852)">
          <path id="path325" d="M-20.459,0h-4.1" transform="translate(24.556)" fill="none" stroke="#458bdc" stroke-linecap="round" stroke-linejoin="round" stroke-width="3"/>
        </g>
        <g id="g327" transform="translate(66.952 73.852)">
          <path id="path329" d="M0,0H3.939" fill="none" stroke="#458bdc" stroke-linecap="round" stroke-linejoin="round" stroke-width="3"/>
        </g>
        <g id="g331" transform="translate(85.313 65.044)">
          <path id="path333" d="M-14.5,0l-2.9,2.9" transform="translate(17.408)" fill="none" stroke="#458bdc" stroke-linecap="round" stroke-linejoin="round" stroke-width="3"/>
        </g>
        <g id="g335" transform="translate(70.6 80.043)">
          <path id="path337" d="M0-13.07l2.617-2.617" transform="translate(0 15.687)" fill="none" stroke="#458bdc" stroke-linecap="round" stroke-linejoin="round" stroke-width="3"/>
        </g>
        <g id="g339" transform="translate(85.257 79.7)">
          <path id="path341" d="M-14.781-14.781l-2.96-2.96" transform="translate(17.741 17.741)" fill="none" stroke="#458bdc" stroke-linecap="round" stroke-linejoin="round" stroke-width="3"/>
        </g>
        <g id="g343" transform="translate(70.6 65.044)">
          <path id="path345" d="M0,0,2.784,2.784" fill="none" stroke="#458bdc" stroke-linecap="round" stroke-linejoin="round" stroke-width="3"/>
        </g>
        <g id="g347" transform="translate(83.32 36.427)">
          <path id="path349" d="M-44.435-22.218a4.449,4.449,0,0,1-4.449,4.449,4.449,4.449,0,0,1-4.449-4.449,4.449,4.449,0,0,1,4.449-4.449A4.449,4.449,0,0,1-44.435-22.218Z" transform="translate(53.333 26.667)" fill="none" stroke="#458bdc" stroke-linecap="round" stroke-linejoin="round" stroke-width="3"/>
        </g>
        <g id="g351" transform="translate(38.51 84.321)">
          <path id="path353" d="M-44.435-22.218a4.449,4.449,0,0,1-4.449,4.449,4.449,4.449,0,0,1-4.449-4.449,4.449,4.449,0,0,1,4.449-4.449A4.449,4.449,0,0,1-44.435-22.218Z" transform="translate(53.333 26.667)" fill="none" stroke="#458bdc" stroke-linecap="round" stroke-linejoin="round" stroke-width="3"/>
        </g>
        <g id="g355" transform="translate(41.222 71.28)">
          <path id="path357" d="M0,0H4.05" fill="none" stroke="#458bdc" stroke-linecap="round" stroke-linejoin="round" stroke-width="3"/>
        </g>
        <g id="g359" transform="translate(30.205 36.757)">
          <path id="path361" d="M-127.377-63.689a12.753,12.753,0,0,0-12.753-12.753,12.753,12.753,0,0,0-12.753,12.753,12.753,12.753,0,0,0,12.753,12.753A12.753,12.753,0,0,0-127.377-63.689Z" transform="translate(152.884 76.442)" fill="none" stroke="#458bdc" stroke-linecap="round" stroke-linejoin="round" stroke-width="3"/>
        </g>
        <g id="g363" transform="translate(42.958 27.79)">
          <path id="path365" d="M0,0V8.523" fill="none" stroke="#458bdc" stroke-linecap="round" stroke-linejoin="round" stroke-width="3"/>
        </g>
        <g id="g367" transform="translate(40.906 27.739)">
          <path id="path369" d="M0,0H4.1" fill="none" stroke="#458bdc" stroke-linecap="round" stroke-linejoin="round" stroke-width="3"/>
        </g>
        <g id="g371" transform="translate(42.958 62.706)">
          <path id="path373" d="M0-42.566v-8.523" transform="translate(0 51.089)" fill="none" stroke="#458bdc" stroke-linecap="round" stroke-linejoin="round" stroke-width="3"/>
        </g>
        <g id="g375" transform="translate(56.154 49.51)">
          <path id="path377" d="M-42.566,0h-8.523" transform="translate(51.089)" fill="none" stroke="#458bdc" stroke-linecap="round" stroke-linejoin="round" stroke-width="3"/>
        </g>
        <g id="g379" transform="translate(64.729 47.458)">
          <path id="path381" d="M0,0V4.1" fill="none" stroke="#458bdc" stroke-linecap="round" stroke-linejoin="round" stroke-width="3"/>
        </g>
        <g id="g383" transform="translate(21.239 49.51)">
          <path id="path385" d="M0,0H8.523" fill="none" stroke="#458bdc" stroke-linecap="round" stroke-linejoin="round" stroke-width="3"/>
        </g>
        <g id="g387" transform="translate(21.188 47.458)">
          <path id="path389" d="M0,0V4.1" fill="none" stroke="#458bdc" stroke-linecap="round" stroke-linejoin="round" stroke-width="3"/>
        </g>
        <g id="g391" transform="translate(52.289 34.152)">
          <path id="path393" d="M-30.1,0l-6.027,6.027" transform="translate(36.125)" fill="none" stroke="#458bdc" stroke-linecap="round" stroke-linejoin="round" stroke-width="3"/>
        </g>
        <g id="g395" transform="translate(56.902 32.665)">
          <path id="path397" d="M0,0,2.9,2.9" fill="none" stroke="#458bdc" stroke-linecap="round" stroke-linejoin="round" stroke-width="3"/>
        </g>
        <g id="g399" transform="translate(27.601 58.841)">
          <path id="path401" d="M0-30.1l6.027-6.027" transform="translate(0 36.125)" fill="none" stroke="#458bdc" stroke-linecap="round" stroke-linejoin="round" stroke-width="3"/>
        </g>
        <g id="g403" transform="translate(26.113 63.453)">
          <path id="path405" d="M0,0,2.9,2.9" fill="none" stroke="#458bdc" stroke-linecap="round" stroke-linejoin="round" stroke-width="3"/>
        </g>
        <g id="g407" transform="translate(52.289 58.841)">
          <path id="path409" d="M-30.1-30.1l-6.027-6.027" transform="translate(36.125 36.125)" fill="none" stroke="#458bdc" stroke-linecap="round" stroke-linejoin="round" stroke-width="3"/>
        </g>
        <g id="g411" transform="translate(56.901 63.453)">
          <path id="path413" d="M-14.493,0l-2.9,2.9" transform="translate(17.395)" fill="none" stroke="#458bdc" stroke-linecap="round" stroke-linejoin="round" stroke-width="3"/>
        </g>
        <g id="g415" transform="translate(27.601 34.152)">
          <path id="path417" d="M0,0,6.027,6.027" fill="none" stroke="#458bdc" stroke-linecap="round" stroke-linejoin="round" stroke-width="3"/>
        </g>
        <g id="g419" transform="translate(26.113 32.665)">
          <path id="path421" d="M-14.493,0l-2.9,2.9" transform="translate(17.395)" fill="none" stroke="#458bdc" stroke-linecap="round" stroke-linejoin="round" stroke-width="3"/>
        </g>
        <g id="g423" transform="translate(56.902 80.947)">
          <path id="path425" d="M0,0H0" fill="none" stroke="#458bdc" stroke-linecap="round" stroke-linejoin="round" stroke-width="3"/>
        </g>
        <g id="g427" transform="translate(73.217 23.134)">
          <path id="path429" d="M0,0H0" fill="none" stroke="#458bdc" stroke-linecap="round" stroke-linejoin="round" stroke-width="3"/>
        </g>
        <g id="g431" transform="translate(2.224 52.569)">
          <path id="path433" d="M0,0H0" fill="none" stroke="#458bdc" stroke-linecap="round" stroke-linejoin="round" stroke-width="3"/>
        </g>
      </g>
    </g>
  </g>
</svg>
