<svg xmlns="http://www.w3.org/2000/svg" width="143.279" height="110.288" viewBox="0 0 143.279 110.288">
  <g id="artificial-intelligence" transform="translate(0.001 -0.027)">
    <path id="Path_14993" data-name="Path 14993" d="M99.514,104.424a21.98,21.98,0,0,1,8.3-1.627,1.783,1.783,0,0,0,0-3.567,25.651,25.651,0,0,0,0,51.3,1.783,1.783,0,0,0,0-3.567,22.079,22.079,0,0,1-8.3-42.538Zm0,0" transform="translate(-57.936 -69.718)" fill="#458bdc"/>
    <path id="Path_14994" data-name="Path 14994" d="M1.449,77.312l6.419,2.173a44.834,44.834,0,0,0,4.779,10.955l-2.8,6.242a1.783,1.783,0,0,0,.382,2.006l10.04,9.8a1.784,1.784,0,0,0,2.035.323l6.146-3.036a40.26,40.26,0,0,0,11.124,4.389l2.382,6.4a1.784,1.784,0,0,0,1.672,1.162h.029l6.242-.108a1.784,1.784,0,1,0-.062-3.567l-4.981.086L42.582,108a1.782,1.782,0,0,0-1.312-1.125,36.757,36.757,0,0,1-11.806-4.658,1.786,1.786,0,0,0-1.721-.078l-5.883,2.906-8.245-8.042,2.675-5.971a1.783,1.783,0,0,0-.123-1.686,41.24,41.24,0,0,1-5.1-11.7A1.783,1.783,0,0,0,9.91,76.413L3.782,74.339l-.2-11.5,6.131-2.28a1.781,1.781,0,0,0,1.126-1.312A36.775,36.775,0,0,1,15.5,47.437a1.782,1.782,0,0,0,.077-1.721l-2.906-5.884,8.046-8.244,5.97,2.675a1.783,1.783,0,0,0,1.686-.122,41.29,41.29,0,0,1,11.7-5.1,1.781,1.781,0,0,0,1.239-1.153l2.075-6.128,6.518-.109a1.784,1.784,0,1,0-.059-3.567l-7.775.132a1.784,1.784,0,0,0-1.659,1.211l-2.175,6.42a44.809,44.809,0,0,0-10.955,4.779l-6.242-2.8a1.784,1.784,0,0,0-2.005.382L9.24,38.246a1.785,1.785,0,0,0-.324,2.036l3.037,6.146a40.321,40.321,0,0,0-4.39,11.127l-6.4,2.38A1.782,1.782,0,0,0,0,61.638L.237,75.655a1.782,1.782,0,0,0,1.212,1.658Zm0,0" transform="translate(0 -12.688)" fill="#458bdc"/>
    <path id="Path_14995" data-name="Path 14995" d="M179.871,161.476v3.567h71.155a9.417,9.417,0,1,0,0-3.567Zm76.26-2.348a5.842,5.842,0,1,1,0,8.261A5.843,5.843,0,0,1,256.131,159.129Zm0,0" transform="translate(-126.411 -108.099)" fill="#458bdc"/>
    <path id="Path_14996" data-name="Path 14996" d="M235.879,68.668a9.412,9.412,0,0,0-9.239,7.624H211.614a9.561,9.561,0,0,0-9.549,9.549,5.991,5.991,0,0,1-5.983,5.984h-16.21v3.567h16.21a9.561,9.561,0,0,0,9.549-9.55,5.989,5.989,0,0,1,5.983-5.983h15.026a9.409,9.409,0,1,0,9.239-11.191Zm4.131,13.539a5.839,5.839,0,1,1,0-8.263,5.839,5.839,0,0,1,0,8.263Zm0,0" transform="translate(-126.411 -48.24)" fill="#458bdc"/>
    <path id="Path_14997" data-name="Path 14997" d="M235.879,239.2a9.407,9.407,0,1,0-9.239-11.191H211.614a5.989,5.989,0,0,1-5.983-5.983,9.562,9.562,0,0,0-9.549-9.55h-16.21v3.567h16.21a5.991,5.991,0,0,1,5.983,5.984,9.561,9.561,0,0,0,9.549,9.549h15.026A9.411,9.411,0,0,0,235.879,239.2Zm-4.131-13.539a5.825,5.825,0,1,1-1.718,4.131,5.841,5.841,0,0,1,1.718-4.131Zm0,0" transform="translate(-126.411 -149.303)" fill="#458bdc"/>
    <path id="Path_14998" data-name="Path 14998" d="M212.926,268.186a9.344,9.344,0,0,0-2.712,5.746h-2.021a8.028,8.028,0,0,1-7.5-5.22l-5.052-13.638a11.612,11.612,0,0,0-10.844-7.547h-4.928v3.567H184.8a8.029,8.029,0,0,1,7.5,5.219l5.053,13.638a11.611,11.611,0,0,0,10.843,7.548h2.359a9.411,9.411,0,1,0,2.374-9.312Zm12.495,6.653a5.837,5.837,0,1,1-1.711-4.132,5.837,5.837,0,0,1,1.711,4.132Zm0,0" transform="translate(-126.411 -173.939)" fill="#458bdc"/>
    <path id="Path_14999" data-name="Path 14999" d="M195.644,29.187,200.7,15.549a8.027,8.027,0,0,1,7.5-5.22h2.021a9.386,9.386,0,1,0,.338-3.567h-2.359a11.61,11.61,0,0,0-10.843,7.548L192.3,27.948a8.029,8.029,0,0,1-7.5,5.219h-4.928v3.567H184.8a11.612,11.612,0,0,0,10.844-7.547Zm19.806-23.9a5.841,5.841,0,1,1-1.711,4.131,5.84,5.84,0,0,1,1.711-4.131Zm0,0" transform="translate(-126.411)" fill="#458bdc"/>
  </g>
</svg>
