<svg id="Group_890" data-name="Group 890" xmlns="http://www.w3.org/2000/svg" width="58.071" height="57.534" viewBox="0 0 58.071 57.534">
  <path id="Path_6618" data-name="Path 6618" d="M53.655,15.989v3.374H8.084V15.989a1.926,1.926,0,0,1,1.926-1.926H51.731a1.926,1.926,0,0,1,1.924,1.926Z" transform="translate(-1.834 -0.837)" fill="#fff"/>
  <g id="Group_889" data-name="Group 889">
    <path id="Path_6619" data-name="Path 6619" d="M48.053,36.585,45.1,35.778a13.934,13.934,0,0,0-1.912-4.606l1.527-2.656a.934.934,0,0,0-.149-1.12l-1.88-1.88a.936.936,0,0,0-1.12-.149L38.9,26.893a13.783,13.783,0,0,0-4.6-1.912L33.5,22.028a.931.931,0,0,0-.9-.689H29.948a.931.931,0,0,0-.9.689l-.8,2.954a13.758,13.758,0,0,0-4.606,1.912l-2.663-1.527a.934.934,0,0,0-1.12.149l-1.88,1.88a.936.936,0,0,0-.149,1.12l1.527,2.663a13.934,13.934,0,0,0-1.912,4.6l-2.954.807a.931.931,0,0,0-.689.9v2.648a.931.931,0,0,0,.689.9l2.954.8a13.758,13.758,0,0,0,1.912,4.606L17.829,49.1a.934.934,0,0,0,.149,1.12l1.88,1.88a.936.936,0,0,0,1.12.149l2.656-1.527a13.953,13.953,0,0,0,4.615,1.912l.8,2.954a.931.931,0,0,0,.9.689H32.6a.931.931,0,0,0,.9-.689l.807-2.954a13.9,13.9,0,0,0,4.606-1.9l2.656,1.52a.922.922,0,0,0,1.12-.149l1.88-1.88a.926.926,0,0,0,.149-1.12L43.2,46.447a13.99,13.99,0,0,0,1.9-4.615l2.954-.8a.931.931,0,0,0,.689-.9V37.485a.932.932,0,0,0-.69-.9ZM31.272,45.5a6.688,6.688,0,1,1,6.688-6.688A6.688,6.688,0,0,1,31.272,45.5Z" transform="translate(-0.664 0.651)" fill="#fff"/>
    <g id="Group_888" data-name="Group 888">
      <path id="Path_6620" data-name="Path 6620" d="M55.781,10.672H23.435L20.144,5.49a5.161,5.161,0,0,0-4.377-2.407H8.081A5.192,5.192,0,0,0,2.895,8.27V45.252a5.191,5.191,0,0,0,5.186,5.186H20.74l-1.209,2.109a1.528,1.528,0,0,0,.251,1.838l1.88,1.88a1.536,1.536,0,0,0,1.847.246l2.343-1.348a14.5,14.5,0,0,0,4.141,1.715l.7,2.6a1.537,1.537,0,0,0,1.483,1.136h2.648a1.536,1.536,0,0,0,1.482-1.132l.712-2.607a14.467,14.467,0,0,0,4.135-1.708L43.5,56.511a1.533,1.533,0,0,0,1.845-.246l1.88-1.88a1.534,1.534,0,0,0,.246-1.845l-1.2-2.1h9.514a5.191,5.191,0,0,0,5.186-5.186V15.858a5.192,5.192,0,0,0-5.186-5.187ZM8.081,4.289h7.686a3.963,3.963,0,0,1,3.362,1.848L22.6,11.6a.6.6,0,0,0,.508.279H55.781a3.986,3.986,0,0,1,3.981,3.981v5.149H55.32V18.236a2.531,2.531,0,0,0-2.528-2.528H11.07a2.53,2.53,0,0,0-2.527,2.528v2.772H4.1V8.27A3.986,3.986,0,0,1,8.081,4.289ZM9.748,21.007V18.235a1.325,1.325,0,0,1,1.323-1.324H52.791a1.325,1.325,0,0,1,1.324,1.324v2.772ZM46.372,53.533l-1.88,1.88a.326.326,0,0,1-.4.052l-2.656-1.52a.6.6,0,0,0-.625.017,13.3,13.3,0,0,1-4.407,1.821.6.6,0,0,0-.454.43l-.807,2.956a.328.328,0,0,1-.319.245H32.18a.328.328,0,0,1-.32-.245l-.8-2.954a.6.6,0,0,0-.454-.431,13.291,13.291,0,0,1-4.416-1.83.605.605,0,0,0-.628-.017l-2.646,1.524a.332.332,0,0,1-.4-.048l-1.88-1.88a.331.331,0,0,1-.052-.4l1.527-2.663a.6.6,0,0,0-.017-.628,13.151,13.151,0,0,1-1.829-4.406.6.6,0,0,0-.431-.454l-2.954-.8a.328.328,0,0,1-.245-.319V41.219a.326.326,0,0,1,.246-.319l2.954-.807a.6.6,0,0,0,.43-.453,13.3,13.3,0,0,1,1.83-4.4.6.6,0,0,0,.016-.625l-1.523-2.656a.333.333,0,0,1,.048-.4l1.882-1.882a.329.329,0,0,1,.394-.052l2.664,1.527a.6.6,0,0,0,.628-.017A13.17,13.17,0,0,1,30.607,29.3a.6.6,0,0,0,.454-.431l.8-2.955a.326.326,0,0,1,.319-.243h2.648a.33.33,0,0,1,.32.246l.807,2.954a.6.6,0,0,0,.453.43,13.153,13.153,0,0,1,4.4,1.829.6.6,0,0,0,.628.017l2.656-1.523a.331.331,0,0,1,.4.048l1.88,1.88a.331.331,0,0,1,.052.394L44.9,34.606a.606.606,0,0,0,.016.628,13.292,13.292,0,0,1,1.83,4.407.6.6,0,0,0,.43.454l2.954.807h0a.33.33,0,0,1,.243.319V43.87a.333.333,0,0,1-.245.32l-2.954.8a.6.6,0,0,0-.431.454,13.338,13.338,0,0,1-1.821,4.416.6.6,0,0,0-.017.625l1.52,2.657a.316.316,0,0,1-.051.391Zm13.39-8.281a3.986,3.986,0,0,1-3.981,3.981H46.665a14.574,14.574,0,0,0,1.172-3.179l2.6-.7a1.538,1.538,0,0,0,1.135-1.483V41.219a1.537,1.537,0,0,0-1.136-1.482l-2.6-.712a14.44,14.44,0,0,0-1.716-4.134l1.353-2.351a1.528,1.528,0,0,0-.251-1.837l-1.88-1.88a1.53,1.53,0,0,0-1.847-.246l-2.35,1.347a14.382,14.382,0,0,0-4.128-1.715l-.711-2.6a1.538,1.538,0,0,0-1.483-1.135H32.176A1.535,1.535,0,0,0,30.695,25.6l-.7,2.6a14.344,14.344,0,0,0-4.135,1.715L23.5,28.573a1.526,1.526,0,0,0-1.837.251l-1.88,1.88a1.531,1.531,0,0,0-.246,1.845L20.884,34.9a14.526,14.526,0,0,0-1.715,4.127l-2.6.712a1.537,1.537,0,0,0-1.136,1.482v2.649a1.535,1.535,0,0,0,1.135,1.482l2.6.7a14.426,14.426,0,0,0,1.179,3.179H8.081A3.986,3.986,0,0,1,4.1,45.253V22.211c64.383,0-24.886,0,55.662,0Z" transform="translate(-2.895 -3.083)" fill="#458bdc"/>
      <path id="Path_6621" data-name="Path 6621" d="M29.543,29.791a7.29,7.29,0,1,0,7.29,7.29,7.3,7.3,0,0,0-7.29-7.29Zm0,13.375a6.085,6.085,0,1,1,6.085-6.085,6.092,6.092,0,0,1-6.085,6.085Z" transform="translate(1.065 2.38)" fill="#2e3f68"/>
    </g>
  </g>
</svg>
