<svg id="Group_909" data-name="Group 909" xmlns="http://www.w3.org/2000/svg" width="59.025" height="59.024" viewBox="0 0 59.025 59.024">
  <g id="Group_906" data-name="Group 906" transform="translate(21.136 17.494)">
    <path id="Path_6634" data-name="Path 6634" d="M36.8,22.51v6.5a2.159,2.159,0,0,0-1.972-2.143V26.2a.807.807,0,0,0-.806-.806H29.609A2.929,2.929,0,0,1,26.831,23.4a.128.128,0,0,0-.246,0,2.94,2.94,0,0,1-2.77,1.992h-.976a.8.8,0,0,0-.806.806v2.811h-.007V26.871a2.159,2.159,0,0,0-1.979,2.143V23.07a3.883,3.883,0,0,1,3.8-3.679,3.185,3.185,0,0,1,3.078-2.368h4.388A5.486,5.486,0,0,1,36.8,22.51Z" transform="translate(-20.047 -17.023)" fill="#fff"/>
    <path id="Path_6635" data-name="Path 6635" d="M30.058,34.6h2.386l-1.059,3.855a1,1,0,0,1-1.591.51L27,36.7Z" transform="translate(-18.625 -13.427)" fill="#fff"/>
    <path id="Path_6636" data-name="Path 6636" d="M24.872,34.6H22.486l1.059,3.855a1,1,0,0,0,1.591.51L27.929,36.7Z" transform="translate(-19.548 -13.427)" fill="#fff"/>
    <g id="Group_905" data-name="Group 905" transform="translate(4.162 11.046)">
      <path id="Path_6637" data-name="Path 6637" d="M26.07,27.477a1.284,1.284,0,1,1-1.284-1.284A1.289,1.289,0,0,1,26.07,27.477Z" transform="translate(-23.502 -26.193)" fill="#fff"/>
      <path id="Path_6638" data-name="Path 6638" d="M30.945,27.477a1.284,1.284,0,1,1-1.284-1.284A1.289,1.289,0,0,1,30.945,27.477Z" transform="translate(-22.505 -26.193)" fill="#fff"/>
    </g>
  </g>
  <g id="Group_908" data-name="Group 908">
    <path id="Path_6639" data-name="Path 6639" d="M25.582,30.018a.4.4,0,0,0-.388.5,2.27,2.27,0,0,0,4.369,0,.4.4,0,0,0-.388-.5H25.582Z" transform="translate(2.139 3.129)" fill="#fff"/>
    <g id="Group_907" data-name="Group 907">
      <path id="Path_6640" data-name="Path 6640" d="M60.217,27.808,56.9,27.033a.474.474,0,0,1-.353-.372,24.97,24.97,0,0,0-3.409-8.221.48.48,0,0,1-.012-.512l1.789-2.89a1.681,1.681,0,0,0-.24-2.083L51.068,9.335a1.678,1.678,0,0,0-2.084-.246l-2.905,1.79a.48.48,0,0,1-.511-.012,24.729,24.729,0,0,0-8.209-3.392.481.481,0,0,1-.372-.353L36.2,3.8a1.685,1.685,0,0,0-1.645-1.3h-5.1a1.682,1.682,0,0,0-1.644,1.3l-.787,3.322a.478.478,0,0,1-.372.352,24.972,24.972,0,0,0-8.207,3.406.473.473,0,0,1-.512.013l-2.9-1.8a1.685,1.685,0,0,0-2.089.243L9.331,12.956a1.686,1.686,0,0,0-.24,2.084l1.8,2.9a.472.472,0,0,1-.014.513,24.6,24.6,0,0,0-3.4,8.207.478.478,0,0,1-.353.372l-3.315.773A1.685,1.685,0,0,0,2.5,29.454v5.113a1.682,1.682,0,0,0,1.306,1.647l3.313.775a.474.474,0,0,1,.353.375,24.676,24.676,0,0,0,3.394,8.219.477.477,0,0,1,.012.512L9.089,48.985a1.684,1.684,0,0,0,.241,2.083l3.606,3.62a1.682,1.682,0,0,0,2.089.243l2.9-1.8a.475.475,0,0,1,.512.012,24.878,24.878,0,0,0,8.205,3.406.481.481,0,0,1,.373.353l.787,3.322a1.684,1.684,0,0,0,1.645,1.3h5.1a1.686,1.686,0,0,0,1.645-1.3l.787-3.32a.476.476,0,0,1,.373-.352,24.506,24.506,0,0,0,8.208-3.394.482.482,0,0,1,.512-.012l2.905,1.79a1.683,1.683,0,0,0,2.084-.247l3.611-3.622a1.686,1.686,0,0,0,.243-2.079L53.145,46.1a.475.475,0,0,1,.013-.511,24.711,24.711,0,0,0,3.4-8.221.477.477,0,0,1,.353-.375l3.311-.775a1.682,1.682,0,0,0,1.307-1.647V29.454a1.689,1.689,0,0,0-1.308-1.647Zm.1,6.76a.483.483,0,0,1-.376.473l-3.313.775a1.689,1.689,0,0,0-1.258,1.3,23.5,23.5,0,0,1-3.232,7.821,1.669,1.669,0,0,0-.025,1.792l1.78,2.892a.486.486,0,0,1-.07.6l-3.611,3.622a.483.483,0,0,1-.6.071l-2.9-1.79a1.675,1.675,0,0,0-1.8.025,23.311,23.311,0,0,1-7.807,3.228,1.672,1.672,0,0,0-1.294,1.254l-.785,3.319a.484.484,0,0,1-.472.373h-5.1a.486.486,0,0,1-.473-.375l-.787-3.322A1.673,1.673,0,0,0,26.9,55.37a23.721,23.721,0,0,1-7.81-3.244,1.7,1.7,0,0,0-.92-.273,1.658,1.658,0,0,0-.878.252l-2.9,1.8a.484.484,0,0,1-.6-.07l-3.608-3.621a.483.483,0,0,1-.069-.6L11.9,46.725a1.67,1.67,0,0,0-.023-1.8A23.5,23.5,0,0,1,8.65,37.11a1.693,1.693,0,0,0-1.258-1.3L4.079,35.04a.48.48,0,0,1-.375-.472V29.454a.484.484,0,0,1,.376-.473l3.314-.775a1.692,1.692,0,0,0,1.258-1.29,23.379,23.379,0,0,1,3.237-7.8,1.687,1.687,0,0,0,.028-1.806l-1.8-2.9a.485.485,0,0,1,.069-.6l3.606-3.618a.487.487,0,0,1,.6-.07l2.9,1.8a1.675,1.675,0,0,0,1.8-.023A23.756,23.756,0,0,1,26.9,8.649,1.67,1.67,0,0,0,28.192,7.4l.788-3.322a.484.484,0,0,1,.472-.372h5.1a.485.485,0,0,1,.473.375L35.816,7.4A1.671,1.671,0,0,0,37.1,8.652a23.56,23.56,0,0,1,7.812,3.229,1.676,1.676,0,0,0,1.795.025l2.905-1.79a.485.485,0,0,1,.6.07l3.609,3.621a.485.485,0,0,1,.069.6L52.1,17.3a1.67,1.67,0,0,0,.023,1.8,23.783,23.783,0,0,1,3.244,7.826,1.693,1.693,0,0,0,1.256,1.289l3.315.775a.485.485,0,0,1,.376.473Z" transform="translate(-2.5 -2.5)" fill="#458bdc"/>
      <path id="Path_6641" data-name="Path 6641" d="M30.074,11.948A18.131,18.131,0,1,0,48.214,30.07,18.151,18.151,0,0,0,30.074,11.948ZM20,43.651a4.815,4.815,0,0,1,4.2-3.771l.926,3.373a1.6,1.6,0,0,0,2.552.819l2.41-1.959,2.41,1.959a1.6,1.6,0,0,0,2.551-.818l.926-3.372a4.888,4.888,0,0,1,4.187,3.759A16.8,16.8,0,0,1,20,43.651Zm2.309-15.864v-3.68a3.265,3.265,0,0,1,3.207-3.075.554.554,0,0,1,.544.564.6.6,0,0,0,.6.6.608.608,0,0,0,.6-.608,1.752,1.752,0,0,0-.948-1.55,2.582,2.582,0,0,1,2.271-1.37h4.388a4.89,4.89,0,0,1,4.884,4.886v4.229c-.037-.025-.086-.035-.125-.059a2.662,2.662,0,0,0-.561-.265c-.029-.01-.053-.03-.082-.039V27.24a1.409,1.409,0,0,0-1.408-1.407H31.267a2.34,2.34,0,0,1-2.207-1.582.613.613,0,0,0-.112-.2.773.773,0,0,0-1.279.2,2.346,2.346,0,0,1-2.2,1.583h-.976a1.408,1.408,0,0,0-1.407,1.407v.172c-.012,0-.02.012-.033.016a2.754,2.754,0,0,0-.691.332c-.016.012-.037.016-.054.028Zm14.78.949a1.579,1.579,0,0,1,.77,1.317h0a1.553,1.553,0,0,1-.77,1.329Zm-14.78,1.317a1.557,1.557,0,0,1,.775-1.335v2.669a1.553,1.553,0,0,1-.776-1.329S22.309,30.055,22.309,30.052Zm1.984.011s0-.007,0-.012V27.239a.2.2,0,0,1,.2-.2h.976a3.519,3.519,0,0,0,2.891-1.507,3.528,3.528,0,0,0,2.9,1.507H35.68a.2.2,0,0,1,.2.2v.642c0,.01-.006.018-.006.028v4.227a5.751,5.751,0,0,1-1.409,3.722,5.794,5.794,0,0,1-10.176-3.788Zm2.552,9.777.3.206,1.936,1.33-2.165,1.759a.394.394,0,0,1-.631-.2l-.85-3.091h1.411Zm5.133.925,1.349-.924h1.409l-.85,3.092a.394.394,0,0,1-.26.272.389.389,0,0,1-.37-.07l-2.166-1.76Zm.56-2.145v.3l-1.041.716-1.412.967-.477-.326-1.974-1.358V38.63a7.155,7.155,0,0,0,4.9-.01Zm8.656,4.191a6.125,6.125,0,0,0-5.783-4.186H33.742v-.6a7.02,7.02,0,0,0,1.635-1.379A6.939,6.939,0,0,0,37.032,32.7a2.773,2.773,0,0,0,2.032-2.651v-6.5a6.1,6.1,0,0,0-6.089-6.09H28.587a3.79,3.79,0,0,0-3.525,2.4,4.475,4.475,0,0,0-3.957,4.246v5.92c0,.008,0,.016,0,.024A2.775,2.775,0,0,0,23.146,32.7a6.931,6.931,0,0,0,1.627,3.916,6.542,6.542,0,0,0,1.657,1.395v.61H24.751a6.124,6.124,0,0,0-5.783,4.2,16.936,16.936,0,1,1,22.225-.011Z" transform="translate(-0.57 -0.567)" fill="#458bdc"/>
      <path id="Path_6642" data-name="Path 6642" d="M24.888,29.466A1.886,1.886,0,1,0,23,27.579,1.888,1.888,0,0,0,24.888,29.466Zm0-2.569a.682.682,0,1,1-.682.682A.682.682,0,0,1,24.888,26.9Z" transform="translate(1.694 2.244)" fill="#458bdc"/>
      <path id="Path_6643" data-name="Path 6643" d="M29.763,29.466a1.886,1.886,0,1,0-1.886-1.886A1.888,1.888,0,0,0,29.763,29.466Zm0-2.569a.682.682,0,1,1-.682.682A.682.682,0,0,1,29.763,26.9Z" transform="translate(2.691 2.244)" fill="#458bdc"/>
      <path id="Path_6644" data-name="Path 6644" d="M29.279,29.519H25.685a1.014,1.014,0,0,0-.8.4.976.976,0,0,0-.164.864,2.872,2.872,0,0,0,5.528,0,.975.975,0,0,0-.164-.861A1.008,1.008,0,0,0,29.279,29.519Zm-1.8,2.149a1.678,1.678,0,0,1-1.5-.944h3.005A1.649,1.649,0,0,1,27.481,31.668Z" transform="translate(2.037 3.027)" fill="#458bdc"/>
    </g>
  </g>
</svg>
