<svg id="Group_882" data-name="Group 882" xmlns="http://www.w3.org/2000/svg" width="57.345" height="56.967" viewBox="0 0 57.345 56.967">
  <path id="Path_6607" data-name="Path 6607" d="M45.365,19.687A15.958,15.958,0,1,1,29.4,3.734,15.961,15.961,0,0,1,45.365,19.687Z" transform="translate(-1.101 -3.133)" fill="#fff"/>
  <g id="Group_881" data-name="Group 881">
    <path id="Path_6608" data-name="Path 6608" d="M27.879,25.437v-.965a3.415,3.415,0,0,0-.6-6.777,2.215,2.215,0,1,1,2.216-2.213.6.6,0,1,0,1.2,0,3.42,3.42,0,0,0-2.819-3.359v-.965a.6.6,0,1,0-1.2,0v.965a3.415,3.415,0,0,0,.6,6.777,2.215,2.215,0,1,1-2.213,2.216.6.6,0,0,0-1.2,0,3.416,3.416,0,0,0,2.815,3.356v.965a.6.6,0,1,0,1.2,0Z" transform="translate(1.028 -1.737)" fill="#458bdc"/>
    <path id="Path_6609" data-name="Path 6609" d="M34.46,19.8a2.409,2.409,0,1,0-2.4-2.414A2.417,2.417,0,0,0,34.46,19.8Zm0-3.614a1.2,1.2,0,1,1-1.2,1.2A1.206,1.206,0,0,1,34.46,16.187Z" transform="translate(2.705 -0.832)" fill="#458bdc"/>
    <path id="Path_6610" data-name="Path 6610" d="M19.742,14.982a2.409,2.409,0,1,0,2.414,2.4A2.407,2.407,0,0,0,19.742,14.982Zm0,3.614a1.2,1.2,0,1,1,1.209-1.209A1.206,1.206,0,0,1,19.742,18.6Z" transform="translate(-0.305 -0.832)" fill="#458bdc"/>
    <path id="Path_6611" data-name="Path 6611" d="M14.25,40.52A11.62,11.62,0,0,0,3.411,48.034a3.373,3.373,0,0,0,3.16,4.541H21.913a3.372,3.372,0,0,0,3.158-4.54A11.6,11.6,0,0,0,14.25,40.52Zm7.665,10.851H6.571A2.164,2.164,0,0,1,4.54,48.456a10.357,10.357,0,0,1,19.4,0A2.163,2.163,0,0,1,21.914,51.371Z" transform="translate(-3.198 4.392)" fill="#458bdc"/>
    <path id="Path_6612" data-name="Path 6612" d="M13.353,40.436a5.812,5.812,0,1,0-5.812-5.812A5.819,5.819,0,0,0,13.353,40.436Zm0-10.419a4.607,4.607,0,1,1-4.607,4.607A4.613,4.613,0,0,1,13.353,30.017Z" transform="translate(-2.309 1.997)" fill="#458bdc"/>
    <path id="Path_6613" data-name="Path 6613" d="M54.341,48.035a11.562,11.562,0,0,0-21.66,0,3.373,3.373,0,0,0,3.158,4.541H51.183A3.372,3.372,0,0,0,54.341,48.035Zm-3.158,3.335H35.84a2.164,2.164,0,0,1-2.03-2.915,10.357,10.357,0,0,1,19.4,0A2.164,2.164,0,0,1,51.183,51.371Z" transform="translate(2.789 4.392)" fill="#458bdc"/>
    <path id="Path_6614" data-name="Path 6614" d="M36.811,34.624a5.812,5.812,0,1,0,5.812-5.812A5.819,5.819,0,0,0,36.811,34.624Zm5.812-4.607a4.607,4.607,0,1,1-4.607,4.607A4.613,4.613,0,0,1,42.623,30.017Z" transform="translate(3.678 1.997)" fill="#458bdc"/>
    <path id="Path_6615" data-name="Path 6615" d="M36.352,46.842l-6.236-4.256V36.324a16.544,16.544,0,1,0-1.214,0v6.262l-6.237,4.256a.6.6,0,0,0,.679.995l6.164-4.206,6.162,4.206a.6.6,0,0,0,.682-1Zm-22.2-27.053A15.355,15.355,0,1,1,29.5,35.15a15.368,15.368,0,0,1-15.351-15.36Z" transform="translate(-1.203 -3.235)" fill="#458bdc"/>
  </g>
</svg>
