<svg id="Group_899" data-name="Group 899" xmlns="http://www.w3.org/2000/svg" width="59.016" height="50.857" viewBox="0 0 59.016 50.857">
  <g id="Group_896" data-name="Group 896" transform="translate(16.354 11.813)">
    <path id="Path_6623" data-name="Path 6623" d="M20.375,26.676a2.148,2.148,0,1,1-2.148-2.148A2.155,2.155,0,0,1,20.375,26.676Z" transform="translate(-16.08 -15.652)" fill="#fff"/>
    <path id="Path_6624" data-name="Path 6624" d="M26.469,19.388a2.148,2.148,0,1,1-2.148-2.148,2.155,2.155,0,0,1,2.148,2.148Z" transform="translate(-14.833 -17.142)" fill="#fff"/>
    <path id="Path_6625" data-name="Path 6625" d="M32.468,26.676a2.148,2.148,0,1,1-2.148-2.148,2.155,2.155,0,0,1,2.148,2.148Z" transform="translate(-13.606 -15.652)" fill="#fff"/>
    <path id="Path_6626" data-name="Path 6626" d="M38.591,19.307a2.148,2.148,0,1,1-2.148-2.148,2.155,2.155,0,0,1,2.148,2.148Z" transform="translate(-12.354 -17.159)" fill="#fff"/>
  </g>
  <g id="Group_898" data-name="Group 898">
    <path id="Path_6627" data-name="Path 6627" d="M35.206,41.556l1.595,2.9A1.49,1.49,0,0,1,35.5,46.663H21.405A1.49,1.49,0,0,1,20.1,44.454l1.595-2.9A1.491,1.491,0,0,1,23,40.784H33.9a1.49,1.49,0,0,1,1.3.772Z" transform="translate(1.058 -0.513)" fill="#fff"/>
    <g id="Group_897" data-name="Group 897">
      <path id="Path_6628" data-name="Path 6628" d="M61,49.828l-2.87-6.44V13.309a5.964,5.964,0,0,0-5.957-5.957H11.848a5.964,5.964,0,0,0-5.957,5.957v30.08l-2.87,6.44a5.957,5.957,0,0,0,5.441,8.381h47.1A5.957,5.957,0,0,0,61,49.828ZM7.095,13.309a4.757,4.757,0,0,1,4.752-4.752H52.174a4.757,4.757,0,0,1,4.752,4.752V42.915H7.095Zm52.45,41.533a4.734,4.734,0,0,1-3.986,2.165H8.462a4.753,4.753,0,0,1-4.341-6.688l2.762-6.2H57.138l2.762,6.2a4.736,4.736,0,0,1-.355,4.523Z" transform="translate(-2.503 -7.352)" fill="#458bdc"/>
      <path id="Path_6629" data-name="Path 6629" d="M48.126,11.4H13.057a3.618,3.618,0,0,0-3.614,3.614V34.8a3.618,3.618,0,0,0,3.614,3.614H48.125A3.618,3.618,0,0,0,51.738,34.8V15.018A3.615,3.615,0,0,0,48.126,11.4ZM50.535,34.8a2.412,2.412,0,0,1-2.409,2.409H13.057A2.412,2.412,0,0,1,10.648,34.8V15.018a2.412,2.412,0,0,1,2.409-2.409H48.125a2.412,2.412,0,0,1,2.409,2.409V34.8Z" transform="translate(-1.083 -6.523)" fill="#458bdc"/>
      <path id="Path_6630" data-name="Path 6630" d="M40.272,16.658a2.741,2.741,0,0,0-2.18,4.416l-3.826,4.84a2.649,2.649,0,0,0-2.646-.052l-3.738-4.73a2.752,2.752,0,1,0-4.551-.193l-3.84,4.86a2.724,2.724,0,0,0-1.161-.266,2.757,2.757,0,1,0,2.751,2.751,2.724,2.724,0,0,0-.641-1.743l3.733-4.724a2.676,2.676,0,0,0,2.8.106L30.7,26.643a2.728,2.728,0,0,0-.557,1.642,2.75,2.75,0,1,0,5.013-1.557l3.855-4.877a2.715,2.715,0,0,0,1.259.32,2.756,2.756,0,0,0,0-5.512Zm-20.4,11.629a1.546,1.546,0,1,1-1.547-1.547,1.519,1.519,0,0,1,1.227.653c.016.072.026.146.04.218l.058-.073a1.5,1.5,0,0,1,.222.749Zm4.25-8.779a1.545,1.545,0,1,1,1.545,1.557,1.547,1.547,0,0,1-1.545-1.557ZM32.9,29.844a1.552,1.552,0,1,1,1.545-1.557A1.553,1.553,0,0,1,32.9,29.844Zm7.377-8.876a1.552,1.552,0,1,1,1.545-1.559,1.554,1.554,0,0,1-1.545,1.559Z" transform="translate(0.172 -5.448)" fill="#458bdc"/>
      <path id="Path_6631" data-name="Path 6631" d="M35.837,41.368A2.093,2.093,0,0,0,34,40.285H23.1a2.09,2.09,0,0,0-1.833,1.083l-1.595,2.9a2.093,2.093,0,0,0,1.835,3.1H35.6a2.094,2.094,0,0,0,1.833-3.1Zm.523,4.36a.868.868,0,0,1-.764.435H21.508a.888.888,0,0,1-.779-1.315l1.595-2.9a.886.886,0,0,1,.778-.459H34a.886.886,0,0,1,.778.46l1.594,2.9a.88.88,0,0,1-.014.882Z" transform="translate(0.956 -0.615)" fill="#458bdc"/>
    </g>
  </g>
</svg>
