<svg id="Group_964" data-name="Group 964" xmlns="http://www.w3.org/2000/svg" width="59.023" height="59.023" viewBox="0 0 59.023 59.023">
  <g id="Group_963" data-name="Group 963">
    <path id="Path_6699" data-name="Path 6699" d="M46.189,34.9a16.4,16.4,0,1,1-16.408-16.4A16.406,16.406,0,0,1,46.189,34.9Z" transform="translate(-0.274 0.774)" fill="#fff"/>
    <g id="Group_962" data-name="Group 962">
      <path id="Path_6700" data-name="Path 6700" d="M53.549,2.5H10.474A7.983,7.983,0,0,0,2.5,10.473V53.549a7.984,7.984,0,0,0,7.974,7.974H53.549a7.984,7.984,0,0,0,7.974-7.974V10.473A7.983,7.983,0,0,0,53.549,2.5Zm0,57.819H10.474a6.777,6.777,0,0,1-6.77-6.77V17.987H60.319V53.549a6.777,6.777,0,0,1-6.77,6.77Zm6.77-43.536H3.7V10.473A6.776,6.776,0,0,1,10.474,3.7H53.549a6.777,6.777,0,0,1,6.77,6.768v6.309Z" transform="translate(-2.5 -2.5)" fill="#458bdc"/>
      <path id="Path_6701" data-name="Path 6701" d="M10.555,6.25A3.228,3.228,0,1,0,13.8,9.478,3.231,3.231,0,0,0,10.555,6.25Zm0,5.252a2.024,2.024,0,1,1,2.036-2.024A2.026,2.026,0,0,1,10.555,11.5Z" transform="translate(-1.513 -1.733)" fill="#458bdc"/>
      <path id="Path_6702" data-name="Path 6702" d="M19.371,6.25a3.228,3.228,0,1,0,3.24,3.228A3.231,3.231,0,0,0,19.371,6.25Zm0,5.252a2.024,2.024,0,1,1,2.036-2.024A2.026,2.026,0,0,1,19.371,11.5Z" transform="translate(0.291 -1.733)" fill="#458bdc"/>
      <path id="Path_6703" data-name="Path 6703" d="M47.155,8.43h-19.2a.6.6,0,0,0,0,1.2h19.2a.6.6,0,0,0,0-1.2Z" transform="translate(2.583 -1.287)" fill="#458bdc"/>
      <path id="Path_6704" data-name="Path 6704" d="M29.883,18a17.006,17.006,0,1,0,17.012,17A17.02,17.02,0,0,0,29.883,18Zm0,32.808A15.8,15.8,0,1,1,45.69,35.006,15.82,15.82,0,0,1,29.883,50.813Z" transform="translate(-0.376 0.672)" fill="#458bdc"/>
      <path id="Path_6705" data-name="Path 6705" d="M27.593,28.284a2.3,2.3,0,0,1,2.295,2.295.6.6,0,0,0,1.2,0,3.5,3.5,0,0,0-2.9-3.439V26.132a.6.6,0,1,0-1.2,0v1.007a3.494,3.494,0,0,0,.6,6.936A2.293,2.293,0,1,1,25.3,36.37a.6.6,0,1,0-1.2,0,3.5,3.5,0,0,0,2.893,3.435v1.007a.6.6,0,1,0,1.2,0V39.805a3.493,3.493,0,0,0-.6-6.935,2.293,2.293,0,0,1,0-4.587Z" transform="translate(1.918 2.211)" fill="#458bdc"/>
      <path id="Path_6706" data-name="Path 6706" d="M34.969,30.124a2.409,2.409,0,1,0,2.413,2.4,2.408,2.408,0,0,0-2.413-2.4Zm0,3.614a1.2,1.2,0,1,1,1.208-1.209A1.207,1.207,0,0,1,34.969,33.738Z" transform="translate(3.65 3.151)" fill="#458bdc"/>
      <path id="Path_6707" data-name="Path 6707" d="M19.84,30.124a2.409,2.409,0,1,0,2.414,2.4,2.407,2.407,0,0,0-2.414-2.4Zm0,3.614a1.2,1.2,0,1,1,1.209-1.209A1.206,1.206,0,0,1,19.84,33.738Z" transform="translate(0.555 3.151)" fill="#458bdc"/>
    </g>
  </g>
</svg>
