<svg id="Group_956" data-name="Group 956" xmlns="http://www.w3.org/2000/svg" width="44.426" height="59.023" viewBox="0 0 44.426 59.023">
  <g id="Group_955" data-name="Group 955">
    <path id="Path_6693" data-name="Path 6693" d="M31.325,39.994l.938,3.69a.99.99,0,0,1-.959,1.233H26.594a.99.99,0,0,1-.959-1.233l.938-3.69a4.507,4.507,0,1,1,4.752,0Z" transform="translate(-6.735 3.466)" fill="#fff"/>
    <g id="Group_954" data-name="Group 954">
      <path id="Path_6694" data-name="Path 6694" d="M51.239,23.436h-.247V21.53a19.036,19.036,0,0,0-38.071,0v1.907h-.247c-1.794,0-2.932,3.423-2.932,4.869v11a22.213,22.213,0,1,0,44.426,0V26.368a2.933,2.933,0,0,0-2.929-2.932ZM14.125,21.53a17.831,17.831,0,0,1,35.662,0v1.907H46V21.427a14.039,14.039,0,0,0-28.078,0v2.009H14.128V21.53Zm30.665,1.912a2.945,2.945,0,0,0-2.82,2.319l-.47,2.212a2.353,2.353,0,0,1-2.292,1.857H24.692A2.355,2.355,0,0,1,22.4,27.97l-.47-2.21a2.942,2.942,0,0,0-2.807-2.318V21.427a12.835,12.835,0,0,1,25.669,0ZM52.965,39.31a21.009,21.009,0,1,1-42.017,0v-11c0-1.261,1.032-3.664,1.727-3.664h6.388a1.733,1.733,0,0,1,1.688,1.368l.47,2.21a3.565,3.565,0,0,0,3.473,2.813H39.211a3.564,3.564,0,0,0,3.472-2.813l.47-2.212a1.734,1.734,0,0,1,1.689-1.368h6.4a1.73,1.73,0,0,1,1.727,1.727V39.31Z" transform="translate(-9.742 -2.5)" fill="#458bdc"/>
      <path id="Path_6695" data-name="Path 6695" d="M34.161,36.273a5.11,5.11,0,1,0-8.173,4.085l-.834,3.279A1.591,1.591,0,0,0,26.7,45.621h4.71a1.591,1.591,0,0,0,1.543-1.984l-.834-3.28a5.043,5.043,0,0,0,2.045-4.085Zm-3.048,3.31a.6.6,0,0,0-.27.661l.938,3.69a.389.389,0,0,1-.377.483H26.7a.388.388,0,0,1-.376-.483l.938-3.69a.6.6,0,0,0-.27-.662,3.9,3.9,0,1,1,5.966-3.309A3.842,3.842,0,0,1,31.114,39.583Z" transform="translate(-6.837 3.364)" fill="#458bdc"/>
    </g>
  </g>
</svg>
