<svg xmlns="http://www.w3.org/2000/svg" xmlns:xlink="http://www.w3.org/1999/xlink" width="96.861" height="96.861" viewBox="0 0 96.861 96.861">
  <defs>
    <clipPath id="clip-path">
      <path id="path723" d="M0-682.665H96.861V-585.8H0Z" transform="translate(0 682.665)" fill="#458bdc"/>
    </clipPath>
  </defs>
  <g id="g717" transform="translate(0 682.665)">
    <g id="g719" transform="translate(0 -682.665)">
      <g id="g721" clip-path="url(#clip-path)">
        <g id="g727" transform="translate(24.428 1.419)">
          <path id="path729" d="M-25.686-51.341h20.94A4.257,4.257,0,0,0-.5-55.589a4.259,4.259,0,0,0-4.247-4.242h-20.94a4.259,4.259,0,0,0-4.247,4.242A4.257,4.257,0,0,0-25.686-51.341Z" transform="translate(29.933 59.831)" fill="rgba(0,0,0,0)" stroke="#458bdc" stroke-linecap="round" stroke-linejoin="round" stroke-width="3"/>
        </g>
        <g id="g731" transform="translate(4.265 60.714)">
          <path id="path733" d="M0-98.688c33.178-.4,41.865-24.808,62.1-13.181" transform="translate(0 115.006)" fill="rgba(0,0,0,0)" stroke="#458bdc" stroke-linecap="round" stroke-linejoin="round" stroke-width="3"/>
        </g>
        <g id="g735" transform="translate(10.458 61.517)">
          <path id="path737" d="M0-25.793c6-3.614,21.5-7.352,30.368-.2" transform="translate(0 30.057)" fill="rgba(0,0,0,0)" stroke="#458bdc" stroke-linecap="round" stroke-linejoin="round" stroke-width="3"/>
        </g>
        <g id="g739" transform="translate(31.951 78.03)">
          <path id="path741" d="M-.1,0-.113.016" transform="translate(0.113)" fill="rgba(0,0,0,0)" stroke="#458bdc" stroke-linecap="round" stroke-linejoin="round" stroke-width="3"/>
        </g>
        <g id="g743" transform="translate(43.534 73.487)">
          <path id="path745" d="M-.1,0-.113.016" transform="translate(0.113)" fill="rgba(0,0,0,0)" stroke="#458bdc" stroke-linecap="round" stroke-linejoin="round" stroke-width="3"/>
        </g>
        <g id="g747" transform="translate(35.399 45.216)">
          <path id="path749" d="M-22.669-45.308a3.755,3.755,0,0,0,3.743-3.748A3.753,3.753,0,0,0-22.669-52.8a3.754,3.754,0,0,0-3.748,3.743A3.756,3.756,0,0,0-22.669-45.308Z" transform="translate(26.417 52.8)" fill="rgba(0,0,0,0)" stroke="#458bdc" stroke-linecap="round" stroke-linejoin="round" stroke-width="3"/>
        </g>
        <g id="g751" transform="translate(48.119 75.809)">
          <path id="path753" d="M-34.734-69.5a5.759,5.759,0,0,0,5.748-5.749A5.755,5.755,0,0,0-34.734-81a5.754,5.754,0,0,0-5.743,5.744A5.758,5.758,0,0,0-34.734-69.5Z" transform="translate(40.477 80.996)" fill="rgba(0,0,0,0)" stroke="#458bdc" stroke-linecap="round" stroke-linejoin="round" stroke-width="3"/>
        </g>
        <g id="g755" transform="translate(70.411 16.761)">
          <path id="path757" d="M-112.927-132.26v47.475a9.364,9.364,0,0,1-9.336,9.336,9.361,9.361,0,0,1-9.336-9.336v-69.344m18.672,0v15.321" transform="translate(131.6 154.129)" fill="rgba(0,0,0,0)" stroke="#458bdc" stroke-linecap="round" stroke-linejoin="round" stroke-width="3"/>
        </g>
        <g id="g759" transform="translate(3.45 9.908)">
          <path id="path761" d="M-79.877-289.3l-8.612,11.213c-6.515,8.494-7.6,26.486,6.767,26.486h48.665c4.118,0,6.961-1.48,8.773-3.786M-67-337.134l-.059,23.59A23.952,23.952,0,0,1-71.232-300.8l-4.74,6.242m49.85,16.7c-.059-.075-.113-.15-.166-.225L-43.54-300.8a23.91,23.91,0,0,1-4.183-12.742l-.059-23.59" transform="translate(93.084 337.134)" fill="rgba(0,0,0,0)" stroke="#458bdc" stroke-linecap="round" stroke-linejoin="round" stroke-width="3"/>
        </g>
        <g id="g763" transform="translate(66.084 8.272)">
          <path id="path765" d="M-23.837-51.341H-4.393A4.113,4.113,0,0,0-.451-55.583a4.115,4.115,0,0,0-3.941-4.247H-23.837a4.111,4.111,0,0,0-3.941,4.247A4.109,4.109,0,0,0-23.837-51.341Z" transform="translate(27.779 59.831)" fill="rgba(0,0,0,0)" stroke="#458bdc" stroke-linecap="round" stroke-linejoin="round" stroke-width="3"/>
        </g>
        <g id="g767" transform="translate(17.982 81.279)">
          <path id="path769" d="M-21.145-42.26a3.5,3.5,0,0,0,3.5-3.5,3.5,3.5,0,0,0-3.5-3.491,3.5,3.5,0,0,0-3.5,3.491A3.5,3.5,0,0,0-21.145-42.26Z" transform="translate(24.641 49.248)" fill="rgba(0,0,0,0)" stroke="#458bdc" stroke-linecap="round" stroke-linejoin="round" stroke-width="3"/>
        </g>
        <g id="g771" transform="translate(77.554 74.254)">
          <path id="path773" d="M-.1,0-.113.016" transform="translate(0.113)" fill="rgba(0,0,0,0)" stroke="#458bdc" stroke-linecap="round" stroke-linejoin="round" stroke-width="3"/>
        </g>
        <g id="g775" transform="translate(80.578 85.092)">
          <path id="path777" d="M-.1,0-.113.016" transform="translate(0.113)" fill="rgba(0,0,0,0)" stroke="#458bdc" stroke-linecap="round" stroke-linejoin="round" stroke-width="3"/>
        </g>
        <g id="g779" transform="translate(76.401 58.858)">
          <path id="path781" d="M-20.237-40.443A3.348,3.348,0,0,0-16.9-43.784a3.349,3.349,0,0,0-3.341-3.346,3.35,3.35,0,0,0-3.346,3.346A3.349,3.349,0,0,0-20.237-40.443Z" transform="translate(23.583 47.131)" fill="rgba(0,0,0,0)" stroke="#458bdc" stroke-linecap="round" stroke-linejoin="round" stroke-width="3"/>
        </g>
        <g id="g783" transform="translate(29.538 17.475)">
          <path id="path785" d="M0,0H6.167" fill="rgba(0,0,0,0)" stroke="#458bdc" stroke-linecap="round" stroke-linejoin="round" stroke-width="3"/>
        </g>
        <g id="g787" transform="translate(29.538 25.041)">
          <path id="path789" d="M0,0H6.167" fill="rgba(0,0,0,0)" stroke="#458bdc" stroke-linecap="round" stroke-linejoin="round" stroke-width="3"/>
        </g>
        <g id="g791" transform="translate(29.538 32.608)">
          <path id="path793" d="M0,0H6.167" fill="rgba(0,0,0,0)" stroke="#458bdc" stroke-linecap="round" stroke-linejoin="round" stroke-width="3"/>
        </g>
        <g id="g795" transform="translate(70.411 24.328)">
          <path id="path797" d="M0,0H6.167" fill="rgba(0,0,0,0)" stroke="#458bdc" stroke-linecap="round" stroke-linejoin="round" stroke-width="3"/>
        </g>
        <g id="g799" transform="translate(70.411 31.895)">
          <path id="path801" d="M0,0H6.167" fill="rgba(0,0,0,0)" stroke="#458bdc" stroke-linecap="round" stroke-linejoin="round" stroke-width="3"/>
        </g>
        <g id="g803" transform="translate(70.411 39.467)">
          <path id="path805" d="M0,0H6.167" fill="rgba(0,0,0,0)" stroke="#458bdc" stroke-linecap="round" stroke-linejoin="round" stroke-width="3"/>
        </g>
        <g id="g807" transform="translate(70.411 47.287)">
          <path id="path809" d="M0-7.808a9.085,9.085,0,0,1,9.336,0,9.084,9.084,0,0,0,9.336,0" transform="translate(0 9.099)" fill="rgba(0,0,0,0)" stroke="#458bdc" stroke-linecap="round" stroke-linejoin="round" stroke-width="3"/>
        </g>
      </g>
    </g>
  </g>
</svg>
